# Blender v2.76 (sub 0) OBJ File: 'env.blend'
# www.blender.org
mtllib volcano.mtl
o Icosphere
v 0.377638 0.776991 0.539161
v -0.312130 0.826947 0.484986
v -0.511865 0.859763 -0.198608
v 0.130853 0.739941 -0.510369
v 0.657293 0.835289 -0.016617
v 0.470014 0.961288 -0.135369
v 0.399016 0.786227 -0.400155
v -0.059361 0.887568 -0.343085
v -0.323080 0.714348 -0.394770
v -0.666394 0.797682 -0.123816
v -0.363582 1.037115 0.081551
v -0.039835 0.941130 0.497286
v 0.129508 0.789786 0.613339
v 0.447975 0.922311 0.346070
v 0.635254 0.796312 0.215523
v 0.906175 0.488758 -0.185206
v 0.896965 0.261668 -0.568746
v 0.577085 0.433138 -0.664943
v 0.050878 0.381889 -0.860877
v -0.304011 0.198899 -0.988281
v -0.487754 0.383731 -0.689459
v -0.822238 0.442723 -0.258967
v -1.053993 0.263347 0.010875
v -0.832284 0.505192 0.298202
v -0.502468 0.472513 0.718668
v -0.310149 0.228643 1.000005
v 0.049534 0.431733 0.882376
v 0.553010 0.418939 0.725230
v 0.872229 0.217728 0.632035
v 0.884136 0.449780 0.315418
v 0.357586 0.187954 -1.007174
v -0.853119 0.186857 -0.621296
v -0.867298 0.258968 0.638782
v 0.355550 0.212732 1.019702
v 1.106097 0.255094 0.047616
v -0.182228 1.118233 0.094605
v 0.329835 1.144953 -0.035412
v 0.030729 1.152471 0.371835
v 0.003859 1.110717 -0.157087
v 0.329835 1.144953 0.275698
v 0.236394 1.149930 0.207590
v -0.065284 1.134188 0.100901
v 0.236394 1.149930 0.024302
v 0.060178 1.154359 0.264229
v 0.044348 1.129760 -0.047382
v -0.667480 0.862497 0.195388
v -0.485122 0.957664 0.313587
v -0.529724 1.074595 0.067759
v -0.625649 1.004199 -0.074058
v -0.600240 1.049838 0.185215
v -0.703086 1.024708 0.125383
v -0.710516 0.992181 -0.036198
v -0.675218 1.034445 0.096107
v -0.678521 1.015445 0.002786
v -0.576663 1.068493 0.062826
v -0.629899 1.024953 -0.019079
v -0.616616 1.052066 0.130663
v 1.018075 0.368643 -0.104159
v 0.493803 0.317466 0.875193
v -0.681290 0.373004 0.717767
v -0.867168 0.297538 -0.422447
v 0.176773 0.279703 -0.960867
v 0.455910 0.613186 0.596429
v -0.385891 0.672018 0.576324
v -0.678315 0.640625 -0.189240
v 0.083591 0.566874 -0.662652
v 0.755932 0.688939 -0.093470
v 0.261920 0.819782 0.587533
v -0.395408 0.902112 0.402787
v -0.414548 0.780115 -0.292619
v 0.267105 0.787324 -0.458604
v 1.012565 0.358899 0.222360
v 0.176423 0.320665 0.976705
v -0.880759 0.378035 0.449741
v -0.664536 0.281271 -0.692980
v 0.501858 0.296238 -0.847594
v 0.728383 0.640218 0.263826
v 0.081911 0.629180 0.709895
v -0.687530 0.716724 0.246368
v -0.377014 0.562318 -0.524561
v 0.483306 0.625972 -0.503455
v 0.651482 0.850478 0.106407
v 0.387848 1.063639 -0.075079
v 0.574356 0.901571 -0.076588
v 0.441863 0.889306 -0.265960
v -0.021899 1.016073 -0.230553
v 0.041356 0.824591 -0.428102
v -0.200112 0.797616 -0.378841
v -0.256312 1.059857 0.089794
v -0.560367 1.003580 0.235144
v -0.704464 0.914624 -0.070276
v 0.005849 1.064996 0.429649
v -0.177849 0.879327 0.494494
v 0.044397 0.865519 0.562292
v 0.382338 1.053894 0.310033
v 0.414480 0.848020 0.450309
v 0.546808 0.852850 0.275912
v 0.929976 0.380135 -0.353521
v 1.016199 0.024726 -0.714833
v 0.726670 0.361312 -0.639092
v -0.099781 0.294371 -0.939909
v -0.383020 0.000000 -1.178815
v -0.425949 0.294832 -0.834829
v -0.947928 0.369936 -0.154548
v -1.244290 0.011222 0.000000
v -0.951543 0.388127 0.186107
v -0.435766 0.346772 0.853855
v -0.389219 0.014463 1.178815
v -0.103156 0.329345 0.957008
v 0.695915 0.313822 0.707869
v 1.012153 0.017281 0.738128
v 0.901753 0.330173 0.447299
v 0.387067 0.007445 -1.174686
v -1.004062 0.003037 -0.728545
v -1.012467 0.022648 0.728545
v 0.383020 0.000000 1.178815
v 1.258265 0.034562 0.019166
v 0.283506 1.181596 -0.005805
v 0.023934 1.154334 -0.102694
v -0.124246 1.160319 0.097727
v 0.045330 1.187582 0.318483
v 0.283506 1.181596 0.241930
v -0.115554 1.147670 0.272819
v -0.149141 1.095477 -0.077224
v 0.191831 1.136395 -0.143608
v 0.386344 1.144953 0.120143
v 0.198549 1.146833 0.377510
v 0.188891 1.084110 0.054659
v 0.064931 1.071091 0.008390
v -0.005832 1.073949 0.104101
v 0.075149 1.086969 0.209524
v 0.188891 1.084110 0.172966
v 0.269686 1.149930 0.115946
v 0.159048 1.151038 0.267572
v -0.026004 1.151531 0.205894
v -0.045791 1.120782 -0.000332
v 0.155090 1.144888 -0.039441
v -0.590431 0.939166 -0.122500
v -0.697533 0.959496 0.152611
v -0.467049 1.044023 0.073123
v -0.414567 0.976234 -0.084984
v -0.380052 1.033796 0.236055
v -0.683703 0.854979 0.036965
v -0.610724 0.772110 -0.223494
v -0.605396 0.877603 0.303560
v -0.615428 1.073609 0.153741
v -0.697539 1.026929 -0.014278
v -0.633483 1.038311 -0.043008
v -0.692771 1.051801 0.108338
v -0.562598 1.094271 0.064609
v -0.562694 1.050440 -0.016541
v -0.538364 1.074962 0.145969
v -0.685839 0.972552 -0.086655
v -0.670199 1.024620 0.180140
v -0.712119 1.022946 0.045189
v -0.610804 1.007866 0.111782
v -0.656483 0.980844 0.017424
v -0.620606 0.987860 0.001290
v -0.654046 0.994864 0.086284
v -0.581324 1.019988 0.061726
v -0.656233 1.035391 0.127732
v -0.680378 1.033154 0.049791
v -0.663682 1.004863 -0.026355
v -0.594962 1.053551 0.014139
v -0.581661 1.068443 0.107996
v 0.296829 0.582116 0.728719
v -0.590655 0.693421 0.455644
v -0.575193 0.553660 -0.400468
v 0.300855 0.527400 -0.680427
v 0.819776 0.630602 0.089931
v 1.196737 0.030242 0.400269
v 1.197748 0.032103 -0.365696
v -0.001550 0.003616 1.241040
v 0.731814 0.004320 1.006417
v -1.187438 0.016653 0.383499
v -0.739640 0.023741 1.004022
v -0.729791 0.000759 -1.004022
v -1.183130 0.006602 -0.383499
v 0.737883 0.015488 -0.995433
v 0.001012 0.001861 -1.240008
v 0.607378 0.609617 0.437512
v -0.157112 0.639555 0.666160
v -0.739507 0.667444 0.028287
v -0.154083 0.577682 -0.617183
v 0.655412 0.690626 -0.298211
v 0.229803 1.022316 0.476575
v 0.501546 1.027756 0.116476
v -0.212743 1.054932 0.339396
v -0.257954 0.972974 -0.167935
v 0.229912 1.015929 -0.259931
v 0.178964 1.183093 0.323002
v 0.328504 1.181596 0.118062
v -0.071154 1.183759 0.239637
v -0.097899 1.142198 -0.039100
v 0.173615 1.174781 -0.091961
v 0.138966 1.084825 0.211682
v 0.210380 1.084110 0.113813
v 0.019522 1.085143 0.171871
v 0.006750 1.065296 0.038759
v 0.136412 1.080855 0.013515
v -0.652884 0.962566 0.228143
v -0.669065 0.890373 -0.139877
v -0.709623 0.956229 0.041990
v -0.478812 1.043684 0.181007
v -0.509460 1.008038 -0.043161
v -0.667822 1.052612 0.149890
v -0.678296 1.012699 -0.052568
v -0.699576 1.050223 0.047482
v -0.569162 1.094319 0.123959
v -0.586963 1.075068 0.000638
v -0.640037 0.995562 0.109619
v -0.645534 0.973036 -0.004079
v -0.657853 0.993911 0.052108
v -0.585012 1.019951 0.095057
v -0.594826 1.008962 0.025801
vn 0.492500 0.493300 0.717100
vn 0.625300 0.488800 0.608300
vn 0.528800 0.494600 0.689700
vn -0.346100 0.555800 0.755900
vn -0.247100 0.560100 0.790700
vn -0.257600 0.597300 0.759500
vn -0.234500 0.706700 -0.667500
vn -0.294100 0.567800 -0.768800
vn -0.206500 0.524500 -0.826000
vn -0.005300 0.723600 -0.690200
vn 0.058100 0.651600 -0.756300
vn -0.097600 0.661100 -0.743900
vn 0.010300 0.669900 -0.742400
vn 0.798100 0.598800 -0.066800
vn 0.705500 0.628500 -0.327600
vn 0.729700 0.673200 -0.119600
vn 0.630100 0.727700 -0.270900
vn 0.584800 0.673000 -0.452800
vn 0.441200 0.721300 -0.533900
vn 0.478200 0.628500 -0.613400
vn 0.327900 0.634000 -0.700400
vn 0.347000 0.661400 -0.664900
vn -0.105400 0.697000 -0.709300
vn -0.218500 0.683100 -0.696800
vn -0.290400 0.688200 -0.664900
vn -0.337400 0.665800 -0.665500
vn -0.391800 0.638200 -0.662700
vn -0.323700 0.668600 -0.669400
vn -0.809300 0.281800 -0.515400
vn -0.939200 0.237900 -0.247800
vn -0.957400 -0.287600 0.025400
vn -0.888300 -0.103100 -0.447500
vn -0.170200 0.984900 0.031500
vn -0.156400 0.938600 -0.307500
vn 0.120600 0.926200 -0.357100
vn 0.075900 0.996900 0.022100
vn -0.313100 0.574000 0.756600
vn -0.214800 0.539400 0.814100
vn -0.097600 0.537900 0.837300
vn -0.112400 0.513500 0.850700
vn 0.042400 0.511100 0.858500
vn 0.006000 0.505000 0.863100
vn 0.601500 0.511800 0.613400
vn 0.681800 0.502900 0.531300
vn 0.737100 0.532300 0.416400
vn 0.659200 0.532700 0.530800
vn 0.747400 0.551100 0.371000
vn 0.695500 0.582100 0.421300
vn 0.770300 0.588700 -0.245000
vn 0.677700 0.658200 -0.328000
vn 0.769700 0.632800 -0.084500
vn 0.711200 0.578600 -0.399400
vn 0.561200 0.608900 -0.560600
vn 0.605700 0.639600 -0.473400
vn 0.400400 0.658400 -0.637300
vn 0.276200 0.701400 -0.657100
vn 0.430900 0.692700 -0.578400
vn -0.016100 0.707200 -0.706800
vn -0.088200 0.739000 -0.667900
vn 0.067200 0.729100 -0.681100
vn -0.130800 0.697600 -0.704500
vn -0.304000 0.704300 -0.641600
vn -0.210200 0.725400 -0.655500
vn -0.385000 0.718800 -0.578900
vn -0.395100 0.734700 -0.551500
vn -0.304200 0.744700 -0.594000
vn -0.658800 0.652200 -0.374900
vn -0.693300 0.650800 -0.309500
vn -0.575500 0.652200 -0.493400
vn -0.791200 0.597600 -0.130000
vn -0.808400 0.580900 0.095100
vn -0.787600 0.614800 -0.041200
vn -0.767900 0.598200 0.229100
vn -0.707000 0.614000 0.350900
vn -0.784500 0.612300 0.098400
vn -0.326800 0.624000 0.709800
vn -0.205200 0.653300 0.728800
vn -0.346000 0.658100 0.668700
vn -0.301100 0.644800 0.702500
vn -0.121600 0.643100 0.756100
vn -0.190500 0.660800 0.726000
vn -0.033800 0.644200 0.764100
vn 0.060000 0.663400 0.745800
vn -0.098900 0.668500 0.737100
vn 0.505500 0.622900 0.597000
vn 0.554300 0.641700 0.530000
vn 0.422500 0.649800 0.631900
vn 0.537200 0.630100 0.560700
vn 0.659900 0.623100 0.419900
vn 0.581900 0.641400 0.499900
vn 0.687500 0.596100 0.414800
vn 0.689100 0.648500 0.323300
vn 0.587800 0.629400 0.508300
vn 0.317300 0.652900 -0.687800
vn 0.126500 0.671300 -0.730300
vn 0.204300 0.696400 -0.688000
vn -0.515600 0.693500 -0.503300
vn -0.635800 0.678300 -0.368200
vn -0.554500 0.695400 -0.457100
vn -0.731200 0.567700 0.378200
vn -0.586500 0.572000 0.573400
vn -0.632600 0.606100 0.482200
vn 0.144300 0.592500 0.792600
vn 0.348100 0.581600 0.735200
vn 0.243800 0.623800 0.742600
vn 0.828500 0.543800 0.133800
vn 0.826100 0.551700 -0.114500
vn 0.796500 0.603800 0.031500
vn -0.617900 0.749800 -0.236600
vn -0.632400 0.765400 0.119100
vn -0.588200 0.804000 0.087300
vn -0.566200 0.795900 -0.214400
vn 0.694900 0.665700 -0.271900
vn 0.454000 0.670100 -0.587200
vn 0.330200 0.809600 -0.485300
vn 0.530100 0.825800 -0.192600
vn -0.358300 0.682400 0.637100
vn -0.034700 0.593800 0.803800
vn 0.009400 0.834100 0.551500
vn -0.333600 0.826800 0.452800
vn -0.065300 0.658100 -0.750100
vn -0.337500 0.691800 -0.638400
vn -0.343400 0.790500 -0.507100
vn -0.064200 0.790000 -0.609800
vn 0.523400 0.586100 0.618500
vn 0.716400 0.623100 0.313900
vn 0.520600 0.832600 0.189100
vn 0.345700 0.833800 0.430400
vn -0.295100 0.869200 -0.396600
vn -0.462600 0.870500 -0.168100
vn -0.713300 0.651100 -0.259100
vn -0.459800 0.650100 -0.604900
vn 0.406700 0.912600 -0.042500
vn 0.400500 0.868100 -0.293200
vn 0.673800 0.645900 -0.358800
vn 0.709900 0.702900 0.043600
vn -0.471800 0.864900 0.171400
vn -0.343700 0.863100 0.370000
vn -0.501300 0.633600 0.589300
vn -0.721200 0.641300 0.262000
vn 0.274300 0.851700 -0.446500
vn 0.046100 0.857500 -0.512500
vn 0.047400 0.635900 -0.770300
vn 0.423000 0.625900 -0.655300
vn -0.152500 0.881100 0.447700
vn 0.102300 0.922500 0.372100
vn 0.268200 0.711500 0.649500
vn -0.142700 0.655200 0.741900
vn -0.961700 0.236400 0.138500
vn -0.855000 0.281700 0.435400
vn -0.862300 -0.039500 0.504900
vn -0.961700 -0.250300 0.111200
vn -0.407800 0.553300 0.726300
vn -0.324000 0.756700 0.567800
vn -0.142400 0.833400 0.534000
vn -0.368800 0.541900 0.755200
vn 0.438300 0.897500 0.047900
vn 0.433100 0.805600 -0.404300
vn 0.492000 0.765800 -0.414200
vn 0.506500 0.860600 0.053400
vn 0.173600 0.656100 -0.734400
vn -0.128000 0.532600 -0.836600
vn -0.196700 0.646100 -0.737500
vn 0.153700 0.675800 -0.720800
vn -0.284600 0.555900 0.781000
vn 0.061100 0.771800 0.632900
vn 0.046800 0.796900 0.602400
vn -0.310100 0.695800 0.647900
vn -0.993000 -0.040400 0.111000
vn -0.851800 0.144600 0.503600
vn -0.724800 0.537300 0.431200
vn -0.908700 0.407100 0.092400
vn -0.863800 0.140900 -0.483800
vn -0.998400 -0.055500 -0.014100
vn -0.880700 0.435300 -0.186800
vn -0.630500 0.568200 -0.528800
vn 0.666900 0.739100 -0.094200
vn 0.528500 0.779600 -0.336000
vn 0.733200 0.505200 -0.455300
vn 0.864800 0.489900 -0.110000
vn 0.535600 0.843500 -0.039700
vn 0.657000 0.712900 -0.245200
vn 0.861400 0.485600 -0.148900
vn 0.789600 0.583400 0.190200
vn -0.871300 0.481200 -0.096400
vn -0.870300 0.453600 0.192100
vn -0.941000 0.083000 0.328200
vn -0.989200 0.097500 -0.109300
vn -0.770500 0.509200 0.383500
vn -0.514800 0.706600 0.485500
vn -0.397500 0.363200 0.842700
vn -0.747500 0.166000 0.643200
vn -0.241300 0.708800 -0.662900
vn -0.608700 0.601600 -0.517300
vn -0.605500 0.244000 -0.757500
vn -0.092200 0.380900 -0.920000
usemtl None
s off
f 1//1 68//1 166//1 63//1
f 1//2 63//2 181//2 96//2
f 1//3 96//3 186//3 68//3
f 2//4 69//4 167//4 64//4
f 2//5 64//5 182//5 93//5
f 2//6 93//6 188//6 69//6
f 3//7 141//7 189//7 70//7
f 3//8 70//8 168//8 144//8
f 3//9 144//9 202//9 138//9
f 3//10 138//10 205//10 141//10
f 4//11 71//11 169//11 66//11
f 4//12 66//12 184//12 87//12
f 4//13 87//13 190//13 71//13
f 5//14 82//14 170//14 67//14
f 5//15 67//15 185//15 84//15
f 5//16 84//16 187//16 82//16
f 6//17 83//17 187//17 84//17
f 6//18 84//18 185//18 85//18
f 6//19 85//19 190//19 83//19
f 7//20 85//20 185//20 81//20
f 7//21 81//21 169//21 71//21
f 7//22 71//22 190//22 85//22
f 8//23 86//23 190//23 87//23
f 8//24 87//24 184//24 88//24
f 8//25 88//25 189//25 86//25
f 9//26 88//26 184//26 80//26
f 9//27 80//27 168//27 70//27
f 9//28 70//28 189//28 88//28
f 10//29 144//29 168//29 65//29
f 10//30 65//30 183//30 143//30
f 10//31 143//31 203//31 91//31
f 10//32 91//32 202//32 144//32
f 11//33 142//33 188//33 89//33
f 11//34 89//34 189//34 141//34
f 11//35 141//35 205//35 140//35
f 11//36 140//36 204//36 142//36
f 12//37 92//37 188//37 93//37
f 12//38 93//38 182//38 94//38
f 12//39 94//39 186//39 92//39
f 13//40 94//40 182//40 78//40
f 13//41 78//41 166//41 68//41
f 13//42 68//42 186//42 94//42
f 14//43 95//43 186//43 96//43
f 14//44 96//44 181//44 97//44
f 14//45 97//45 187//45 95//45
f 15//46 97//46 181//46 77//46
f 15//47 77//47 170//47 82//47
f 15//48 82//48 187//48 97//48
f 16//49 58//49 172//49 98//49
f 16//50 98//50 185//50 67//50
f 16//51 67//51 170//51 58//51
f 17//52 98//52 172//52 99//52
f 17//53 99//53 179//53 100//53
f 17//54 100//54 185//54 98//54
f 18//55 100//55 179//55 76//55
f 18//56 76//56 169//56 81//56
f 18//57 81//57 185//57 100//57
f 19//58 62//58 180//58 101//58
f 19//59 101//59 184//59 66//59
f 19//60 66//60 169//60 62//60
f 20//61 101//61 180//61 102//61
f 20//62 102//62 177//62 103//62
f 20//63 103//63 184//63 101//63
f 21//64 103//64 177//64 75//64
f 21//65 75//65 168//65 80//65
f 21//66 80//66 184//66 103//66
f 22//67 61//67 178//67 104//67
f 22//68 104//68 183//68 65//68
f 22//69 65//69 168//69 61//69
f 23//70 104//70 178//70 105//70
f 23//71 105//71 175//71 106//71
f 23//72 106//72 183//72 104//72
f 24//73 106//73 175//73 74//73
f 24//74 74//74 167//74 79//74
f 24//75 79//75 183//75 106//75
f 25//76 60//76 176//76 107//76
f 25//77 107//77 182//77 64//77
f 25//78 64//78 167//78 60//78
f 26//79 107//79 176//79 108//79
f 26//80 108//80 173//80 109//80
f 26//81 109//81 182//81 107//81
f 27//82 109//82 173//82 73//82
f 27//83 73//83 166//83 78//83
f 27//84 78//84 182//84 109//84
f 28//85 59//85 174//85 110//85
f 28//86 110//86 181//86 63//86
f 28//87 63//87 166//87 59//87
f 29//88 110//88 174//88 111//88
f 29//89 111//89 171//89 112//89
f 29//90 112//90 181//90 110//90
f 30//91 112//91 171//91 72//91
f 30//92 72//92 170//92 77//92
f 30//93 77//93 181//93 112//93
f 31//94 76//94 179//94 113//94
f 31//95 113//95 180//95 62//95
f 31//96 62//96 169//96 76//96
f 32//97 75//97 177//97 114//97
f 32//98 114//98 178//98 61//98
f 32//99 61//99 168//99 75//99
f 33//100 74//100 175//100 115//100
f 33//101 115//101 176//101 60//101
f 33//102 60//102 167//102 74//102
f 34//103 73//103 173//103 116//103
f 34//104 116//104 174//104 59//104
f 34//105 59//105 166//105 73//105
f 35//106 72//106 171//106 117//106
f 35//107 117//107 172//107 58//107
f 35//108 58//108 170//108 72//108
f 36//109 124//109 189//109 89//109
f 36//110 89//110 188//110 123//110
f 36//111 123//111 193//111 120//111
f 36//112 120//112 194//112 124//112
f 37//113 126//113 187//113 83//113
f 37//114 83//114 190//114 125//114
f 37//115 125//115 195//115 118//115
f 37//116 118//116 192//116 126//116
f 38//117 123//117 188//117 92//117
f 38//118 92//118 186//118 127//118
f 38//119 127//119 191//119 121//119
f 38//120 121//120 193//120 123//120
f 39//121 125//121 190//121 86//121
f 39//122 86//122 189//122 124//122
f 39//123 124//123 194//123 119//123
f 39//124 119//124 195//124 125//124
f 40//125 127//125 186//125 95//125
f 40//126 95//126 187//126 126//126
f 40//127 126//127 192//127 122//127
f 40//128 122//128 191//128 127//128
f 41//129 134//129 191//129 122//129
f 41//130 122//130 192//130 133//130
f 41//131 133//131 197//131 132//131
f 41//132 132//132 196//132 134//132
f 42//133 136//133 194//133 120//133
f 42//134 120//134 193//134 135//134
f 42//135 135//135 198//135 130//135
f 42//136 130//136 199//136 136//136
f 43//137 133//137 192//137 118//137
f 43//138 118//138 195//138 137//138
f 43//139 137//139 200//139 128//139
f 43//140 128//140 197//140 133//140
f 44//141 135//141 193//141 121//141
f 44//142 121//142 191//142 134//142
f 44//143 134//143 196//143 131//143
f 44//144 131//144 198//144 135//144
f 45//145 137//145 195//145 119//145
f 45//146 119//146 194//146 136//146
f 45//147 136//147 199//147 129//147
f 45//148 129//148 200//148 137//148
f 46//149 143//149 183//149 79//149
f 46//150 79//150 167//150 145//150
f 46//151 145//151 201//151 139//151
f 46//152 139//152 203//152 143//152
f 47//153 145//153 167//153 69//153
f 47//154 69//154 188//154 142//154
f 47//155 142//155 204//155 90//155
f 47//156 90//156 201//156 145//156
f 48//157 152//157 204//157 140//157
f 48//158 140//158 205//158 151//158
f 48//159 151//159 210//159 150//159
f 48//160 150//160 209//160 152//160
f 49//161 151//161 205//161 138//161
f 49//162 138//162 202//162 153//162
f 49//163 153//163 207//163 148//163
f 49//164 148//164 210//164 151//164
f 50//165 154//165 201//165 90//165
f 50//166 90//166 204//166 152//166
f 50//167 152//167 209//167 146//167
f 50//168 146//168 206//168 154//168
f 51//169 155//169 203//169 139//169
f 51//170 139//170 201//170 154//170
f 51//171 154//171 206//171 149//171
f 51//172 149//172 208//172 155//172
f 52//173 153//173 202//173 91//173
f 52//174 91//174 203//174 155//174
f 52//175 155//175 208//175 147//175
f 52//176 147//176 207//176 153//176
f 53//177 162//177 208//177 149//177
f 53//178 149//178 206//178 161//178
f 53//179 161//179 211//179 159//179
f 53//180 159//180 213//180 162//180
f 54//181 163//181 207//181 147//181
f 54//182 147//182 208//182 162//182
f 54//183 162//183 213//183 157//183
f 54//184 157//184 212//184 163//184
f 55//185 165//185 209//185 150//185
f 55//186 150//186 210//186 164//186
f 55//187 164//187 215//187 160//187
f 55//188 160//188 214//188 165//188
f 56//189 164//189 210//189 148//189
f 56//190 148//190 207//190 163//190
f 56//191 163//191 212//191 158//191
f 56//192 158//192 215//192 164//192
f 57//193 161//193 206//193 146//193
f 57//194 146//194 209//194 165//194
f 57//195 165//195 214//195 156//195
f 57//196 156//196 211//196 161//196
